<?xml version="1.0" standalone="no"?>
<!DOCTYPE svg PUBLIC "-//W3C//DTD SVG 20010904//EN"
 "http://www.w3.org/TR/2001/REC-SVG-20010904/DTD/svg10.dtd">
<svg version="1.0" xmlns="http://www.w3.org/2000/svg"
 width="1841.000000pt" height="1841.000000pt" viewBox="0 0 1841.000000 1841.000000"
 preserveAspectRatio="xMidYMid meet">
<metadata>
Created by potrace 1.11, written by Peter Selinger 2001-2013
</metadata>
<g transform="translate(0.000000,1841.000000) scale(0.100000,-0.100000)"
fill="#000000" stroke="none">
<path d="M1938 14665 c-2 -1 -75 -5 -163 -9 -179 -7 -216 -10 -361 -31 -159
-23 -155 -16 -61 -116 95 -100 128 -136 217 -239 36 -41 67 -77 70 -80 14 -14
166 -197 236 -285 146 -182 434 -573 434 -589 0 -4 10 -18 23 -31 12 -14 31
-42 42 -62 11 -21 22 -40 26 -43 9 -8 69 -98 69 -104 0 -3 14 -25 30 -49 17
-25 30 -50 30 -56 0 -6 4 -11 8 -11 5 0 17 -17 28 -37 10 -21 21 -40 25 -43
16 -15 184 -323 278 -510 113 -227 186 -389 271 -611 77 -198 187 -538 216
-664 1 -5 11 -46 22 -90 40 -155 103 -473 117 -595 3 -25 7 -56 10 -70 2 -14
7 -54 11 -90 3 -36 7 -72 9 -80 1 -8 6 -60 9 -115 4 -55 9 -129 12 -165 7 -93
7 -522 0 -605 -3 -38 -8 -108 -11 -155 -4 -47 -8 -98 -10 -115 -1 -16 -6 -59
-10 -95 -5 -57 -12 -107 -30 -235 -3 -16 -7 -41 -10 -55 -2 -13 -7 -42 -10
-65 -3 -22 -15 -83 -25 -135 -11 -52 -22 -106 -24 -120 -3 -14 -14 -62 -25
-107 -11 -45 -22 -92 -25 -105 -21 -118 -202 -681 -271 -843 -7 -16 -39 -93
-71 -170 -54 -132 -116 -266 -222 -485 -25 -52 -48 -97 -52 -100 -3 -3 -18
-32 -34 -65 -17 -33 -51 -96 -76 -140 -25 -44 -56 -101 -70 -127 -13 -26 -29
-44 -35 -41 -5 4 -7 3 -3 -2 9 -10 -7 -40 -90 -173 -37 -59 -73 -120 -81 -134
-8 -15 -22 -37 -33 -47 -10 -11 -18 -23 -18 -26 0 -7 -143 -221 -223 -335
-149 -210 -493 -661 -531 -695 -6 -5 -40 -46 -76 -90 -35 -44 -67 -82 -71 -85
-3 -3 -39 -43 -79 -90 -63 -74 -156 -177 -254 -284 -15 -17 -85 -91 -155 -165
-69 -74 -139 -149 -156 -167 -16 -17 -61 -64 -99 -103 -60 -63 -65 -71 -45
-72 13 0 33 -2 44 -5 11 -2 47 -6 80 -9 33 -4 76 -8 95 -10 210 -25 964 -26
1095 -1 11 2 52 7 90 10 425 42 925 171 1345 349 196 82 576 289 687 373 17
13 35 24 40 24 4 0 20 10 35 23 15 12 52 40 84 62 177 124 384 305 588 514
115 118 101 103 186 201 36 41 67 77 70 80 9 9 84 103 105 131 11 15 52 69 90
120 249 332 508 781 689 1194 27 61 57 128 67 149 11 22 19 44 19 49 0 5 7 23
15 40 50 111 209 556 239 672 2 6 6 17 9 25 5 15 52 175 67 235 31 114 79 309
86 345 3 14 11 50 19 80 17 68 56 263 58 290 1 11 3 20 4 20 2 0 667 -664
1478 -1475 l1475 -1475 1496 1496 c823 822 1497 1494 1499 1492 1 -2 5 -21 8
-43 5 -32 40 -205 83 -400 9 -44 15 -66 59 -235 186 -705 427 -1306 765 -1905
110 -194 377 -588 486 -715 12 -14 49 -59 83 -100 95 -115 293 -323 421 -442
536 -497 1121 -824 1827 -1024 71 -20 135 -37 143 -39 8 -2 78 -16 155 -33
135 -29 202 -42 255 -47 14 -2 42 -6 63 -9 56 -9 96 -14 162 -21 33 -4 76 -8
95 -10 231 -27 872 -26 1085 0 16 2 63 6 105 10 41 3 89 9 107 13 l31 7 -101
106 c-99 102 -342 360 -362 383 -5 7 -35 39 -65 72 -99 107 -144 158 -206 229
-68 78 -302 359 -349 420 -16 21 -48 61 -71 89 -107 134 -391 528 -494 686
-51 77 -102 158 -139 215 -24 39 -51 81 -60 95 -31 49 -41 72 -34 83 3 5 2 7
-4 4 -5 -4 -16 6 -24 21 -7 15 -18 34 -25 42 -20 25 -146 258 -144 266 1 4 -3
10 -8 13 -10 6 -159 298 -227 446 -150 323 -270 640 -386 1020 -23 77 -90 344
-114 455 -20 93 -36 176 -41 207 -3 21 -9 56 -14 78 -5 22 -12 67 -15 100 -4
33 -9 62 -10 65 -2 3 -7 37 -10 75 -4 39 -8 72 -10 75 -2 3 -6 45 -10 92 -3
48 -8 96 -10 108 -6 33 -18 324 -18 465 0 130 11 424 18 480 2 17 7 62 10 100
3 39 8 84 10 100 2 17 7 53 10 80 12 98 19 148 41 265 134 745 385 1421 799
2155 66 117 297 487 315 505 3 3 27 39 55 80 55 82 196 280 229 321 12 14 30
38 41 53 104 146 522 642 674 799 36 38 67 72 69 77 5 13 -30 22 -128 35 -30
3 -66 8 -80 10 -29 5 -142 15 -215 21 -64 4 -424 4 -491 -1 -108 -7 -210 -16
-229 -20 -11 -2 -45 -7 -76 -10 -31 -3 -67 -8 -80 -10 -13 -3 -41 -7 -64 -11
-22 -3 -83 -15 -135 -26 -52 -10 -106 -22 -119 -24 -14 -3 -73 -18 -132 -33
-59 -16 -110 -26 -113 -23 -3 3 -6 0 -6 -6 0 -7 -7 -12 -15 -12 -8 0 -42 -9
-75 -21 -33 -11 -65 -17 -71 -13 -7 4 -9 3 -6 -3 7 -12 -111 -56 -126 -46 -6
3 -7 1 -3 -5 7 -11 -11 -17 -41 -13 -7 1 -13 -2 -13 -7 0 -5 -15 -15 -32 -22
-46 -17 -90 -37 -188 -83 -47 -22 -91 -40 -97 -40 -7 0 -13 -4 -13 -9 0 -5
-19 -17 -42 -28 -200 -91 -583 -357 -844 -585 -71 -61 -339 -328 -384 -381
-157 -186 -257 -310 -333 -415 -344 -473 -648 -1054 -877 -1674 -74 -202 -72
-197 -76 -210 -2 -5 -24 -71 -49 -145 -63 -186 -111 -347 -186 -625 -31 -115
-32 -128 -32 -310 -1 -157 2 -241 15 -445 0 -3 0 -8 -1 -13 0 -4 -649 641
-1441 1433 -792 792 -1444 1440 -1450 1440 -6 0 -647 -637 -1425 -1415 l-1415
-1415 7 118 c4 64 7 200 7 302 -1 176 -2 191 -33 305 -159 593 -359 1156 -562
1580 -18 39 -34 72 -34 75 -1 6 -76 153 -133 261 -55 105 -128 234 -168 297
-19 29 -34 54 -34 56 0 3 -27 45 -60 95 -33 50 -60 95 -60 100 0 5 -4 11 -8
13 -4 2 -32 39 -62 83 -46 67 -167 230 -213 285 -7 8 -28 35 -47 60 -19 24
-44 54 -55 66 -11 11 -45 50 -75 85 -56 65 -284 295 -355 360 -223 199 -461
375 -695 513 -63 37 -122 71 -130 76 -17 10 -313 156 -345 170 -11 5 -30 12
-43 15 -12 4 -19 11 -16 17 4 6 2 8 -4 5 -15 -10 -43 3 -35 16 3 6 1 7 -5 3
-16 -10 -123 25 -115 37 3 6 1 7 -5 3 -6 -3 -28 0 -49 8 -56 21 -233 76 -265
81 -15 3 -39 10 -53 15 -14 5 -40 12 -58 15 -18 3 -40 8 -49 11 -29 9 -60 15
-198 39 -136 24 -179 30 -280 41 -30 3 -68 7 -85 9 -16 3 -102 7 -190 10 -88
3 -168 8 -177 9 -9 2 -18 3 -20 1z m1039 -906 c407 -130 811 -358 1193 -673
112 -92 365 -345 472 -471 416 -489 731 -1109 922 -1810 77 -281 154 -664 182
-905 3 -30 8 -66 10 -80 17 -115 23 -297 12 -380 -76 -557 -333 -1401 -618
-2029 -166 -368 -371 -733 -578 -1036 -73 -106 -189 -265 -202 -275 -3 -3 -13
-14 -21 -26 -20 -29 -90 -113 -180 -214 -357 -400 -785 -725 -1224 -930 -122
-57 -265 -113 -272 -106 -3 3 4 17 15 33 25 36 200 341 260 453 25 47 63 117
84 155 60 106 314 618 397 800 369 807 690 1768 815 2435 3 14 14 72 25 129
22 111 66 391 76 481 3 30 10 91 15 135 27 230 35 390 35 715 0 253 -8 467
-20 555 -2 17 -6 57 -10 90 -3 33 -7 71 -10 85 -2 14 -6 48 -10 75 -5 44 -10
76 -19 125 -1 8 -6 38 -11 65 -7 48 -16 89 -48 240 -44 202 -166 588 -227 720
-5 11 -25 57 -44 103 -136 316 -315 623 -531 907 -139 184 -255 315 -442 503
-90 89 -159 162 -153 162 5 0 54 -14 107 -31z m13025 -116 c-435 -431 -752
-884 -973 -1393 -28 -63 -54 -124 -59 -135 -97 -220 -228 -676 -276 -965 -4
-25 -8 -47 -9 -50 -1 -3 -5 -30 -9 -60 -5 -30 -10 -62 -11 -71 -9 -49 -34
-281 -42 -399 -15 -208 -8 -814 11 -975 2 -16 7 -64 11 -105 3 -41 8 -86 10
-100 2 -14 7 -50 10 -80 16 -142 60 -405 97 -585 11 -55 22 -109 24 -120 14
-75 118 -499 145 -590 144 -482 241 -765 399 -1162 185 -463 506 -1146 680
-1448 10 -16 37 -66 60 -110 56 -105 228 -402 253 -438 10 -16 17 -31 13 -34
-14 -14 -333 131 -511 232 -578 327 -1087 837 -1515 1515 -151 239 -344 601
-469 880 -258 577 -481 1302 -586 1910 -27 154 -27 242 0 469 4 29 8 63 10 75
2 11 6 44 10 71 54 440 221 1072 390 1475 112 266 294 608 427 799 21 31 44
64 51 74 149 223 497 603 702 767 44 35 82 67 85 70 11 15 232 170 321 227
172 109 386 220 569 295 83 34 298 106 318 107 7 1 -54 -65 -136 -146z m-5577
-3733 l940 -940 -943 -943 -942 -942 -942 942 -943 943 940 940 c517 517 942
940 945 940 3 0 428 -423 945 -940z"/>
</g>
</svg>
